<svg width="1089" height="737" viewBox="0 0 1089 737" fill="none" xmlns="http://www.w3.org/2000/svg">
<g clip-path="url(#clip0_1_140)">
<rect width="1089" height="737" fill="#C0E8B9"/>
<circle cx="942.5" cy="397.5" r="208.5" fill="#58B066" fill-opacity="0.17"/>
<path d="M298.6 382C288.333 382 279.067 379.8 270.8 375.4C262.667 371 256.2 364.533 251.4 356C246.733 347.333 244.4 336.6 244.4 323.8C244.533 310.867 246.867 300.067 251.4 291.4C256.067 282.733 262.533 276.267 270.8 272C279.067 267.6 288.6 265.4 299.4 265.4C312.467 265.4 323.4 268.933 332.2 276C341.133 283.067 346.8 293.2 349.2 306.4H339.8C337.8 295.733 333.133 287.667 325.8 282.2C318.467 276.6 309.667 273.8 299.4 273.8C285.267 273.8 274.067 278.067 265.8 286.6C257.667 295.133 253.6 307.4 253.6 323.4C253.6 339.933 257.6 352.467 265.6 361C273.733 369.4 284.733 373.6 298.6 373.6C309.933 373.6 319.267 370.8 326.6 365.2C333.933 359.6 338.533 351.6 340.4 341.2H350.2C347.667 354.133 342 364.2 333.2 371.4C324.4 378.467 312.867 382 298.6 382ZM401.155 382C388.488 382 378.955 378.133 372.555 370.4C366.288 362.533 363.155 352.6 363.155 340.6C363.155 328.333 366.355 318.333 372.755 310.6C379.155 302.733 388.621 298.8 401.155 298.8C413.421 298.8 422.755 302.667 429.155 310.4C435.688 318 438.955 328.067 438.955 340.6C438.955 348.467 437.555 355.533 434.755 361.8C432.088 367.933 427.955 372.867 422.355 376.6C416.888 380.2 409.821 382 401.155 382ZM401.155 373.8C408.621 373.8 414.421 372.133 418.555 368.8C422.688 365.467 425.555 361.267 427.155 356.2C428.888 351 429.755 345.733 429.755 340.4C429.755 334.933 428.888 329.667 427.155 324.6C425.555 319.4 422.688 315.133 418.555 311.8C414.421 308.333 408.621 306.6 401.155 306.6C393.688 306.6 387.888 308.333 383.755 311.8C379.621 315.133 376.688 319.4 374.955 324.6C373.221 329.667 372.355 334.933 372.355 340.4C372.355 345.733 373.221 351 374.955 356.2C376.688 361.267 379.621 365.467 383.755 368.8C387.888 372.133 393.688 373.8 401.155 373.8ZM458.194 380V267.4H467.394V380H458.194ZM488.663 380V267.4H497.863V380H488.663ZM545.131 381.8C537.665 381.8 531.465 379.933 526.531 376.2C521.598 372.467 517.931 367.467 515.531 361.2C513.131 354.8 511.931 347.733 511.931 340C511.931 332 513.131 324.867 515.531 318.6C518.065 312.2 521.798 307.2 526.731 303.6C531.665 299.867 537.798 298 545.131 298C552.998 298 559.265 299.933 563.931 303.8C568.598 307.533 571.931 311.867 573.931 316.8H574.331V298.8H583.531V380H575.931L574.331 363.2H573.931C571.798 368.133 568.398 372.467 563.731 376.2C559.065 379.933 552.865 381.8 545.131 381.8ZM548.531 373.4C557.065 373.4 563.465 370.467 567.731 364.6C571.998 358.733 574.131 350.6 574.131 340.2C574.131 329.133 571.865 320.8 567.331 315.2C562.931 309.6 556.665 306.8 548.531 306.8C539.065 306.8 532.131 310 527.731 316.4C523.331 322.667 521.131 330.533 521.131 340C521.131 349.867 523.398 357.933 527.931 364.2C532.465 370.333 539.331 373.4 548.531 373.4ZM617.548 412V403.4H660.348V360.2H659.948C659.682 361.133 658.882 362.733 657.548 365C656.348 367.267 654.548 369.733 652.148 372.4C649.748 375.067 646.615 377.333 642.748 379.2C639.015 381.067 634.482 382 629.148 382C621.415 382 614.815 380.133 609.348 376.4C604.015 372.667 599.948 367.667 597.148 361.4C594.348 355.133 592.948 348.133 592.948 340.4C592.948 332.533 594.348 325.467 597.148 319.2C600.082 312.933 604.215 308 609.548 304.4C615.015 300.667 621.615 298.8 629.348 298.8C634.815 298.8 639.415 299.8 643.148 301.8C647.015 303.667 650.082 305.933 652.348 308.6C654.748 311.133 656.482 313.6 657.548 316C658.748 318.267 659.482 319.867 659.748 320.8H660.148L660.348 298.8H669.748V397.4C669.748 401.667 668.948 405.133 667.348 407.8C665.882 410.6 662.748 412 657.948 412H617.548ZM630.348 373.4C638.482 373.4 645.415 370.533 651.148 364.8C657.015 359.067 659.948 350.933 659.948 340.4C659.948 330.133 657.215 322.133 651.748 316.4C646.282 310.533 639.548 307.6 631.548 307.6C624.882 307.6 619.348 309.2 614.948 312.4C610.548 315.467 607.282 319.533 605.148 324.6C603.015 329.533 601.948 334.8 601.948 340.4C601.948 346 602.882 351.333 604.748 356.4C606.748 361.467 609.815 365.6 613.948 368.8C618.215 371.867 623.682 373.4 630.348 373.4ZM696.416 290.2C694.149 290.333 692.616 289.733 691.816 288.4C691.016 287.067 690.616 285.467 690.616 283.6C690.616 281.867 691.016 280.4 691.816 279.2C692.616 278 694.149 277.4 696.416 277.4C698.549 277.4 700.016 278 700.816 279.2C701.616 280.4 702.016 281.867 702.016 283.6C702.016 285.6 701.616 287.2 700.816 288.4C700.016 289.6 698.549 290.2 696.416 290.2ZM691.616 380V298.8H700.616V380H691.616ZM727.842 380.6V306.2H714.642V298.8H727.842V278.6C727.842 275.4 728.442 272.6 729.642 270.2C730.976 267.8 733.709 266.6 737.842 266.6H763.242V274.2H737.242V298.8H761.642V306.2H737.242V380.6H727.842ZM770.817 415.6V408H781.217C783.884 408 786.017 407.2 787.617 405.6C789.217 404 791.284 400.6 793.817 395.4L803.817 373.6L772.017 298.8H781.617L808.617 363.6L837.217 298.8H847.017L801.817 397C799.417 402.333 797.284 406.333 795.417 409C793.551 411.667 791.551 413.4 789.417 414.2C787.284 415.133 784.684 415.6 781.617 415.6H770.817Z" fill="black"/>
<path d="M193.8 450.296H200.664V450.776H200.424C200.168 450.776 199.944 450.872 199.752 451.064C199.56 451.224 199.4 451.432 199.272 451.688C199.144 451.944 199.032 452.216 198.936 452.504C198.872 452.792 198.84 453.048 198.84 453.272V466.136C198.264 466.36 197.608 466.552 196.872 466.712C196.136 466.872 195.368 467 194.568 467.096C193.768 467.224 192.952 467.32 192.12 467.384C191.288 467.448 190.52 467.48 189.816 467.48C186.936 467.48 184.424 467 182.28 466.04C180.136 465.08 178.36 463.832 176.952 462.296C175.544 460.728 174.488 458.968 173.784 457.016C173.112 455.064 172.776 453.096 172.776 451.112C172.776 449.128 173.112 447.16 173.784 445.208C174.488 443.256 175.544 441.512 176.952 439.976C178.392 438.44 180.184 437.208 182.328 436.28C184.504 435.32 187.08 434.84 190.056 434.84C191.176 434.84 192.216 434.936 193.176 435.128C194.136 435.32 194.984 435.496 195.72 435.656C196.136 435.752 196.488 435.848 196.776 435.944C197.096 436.008 197.368 436.04 197.592 436.04H198.024V441.128H197.544C197.352 440.136 196.968 439.336 196.392 438.728C195.848 438.12 195.208 437.656 194.472 437.336C193.736 437.016 192.952 436.808 192.12 436.712C191.32 436.584 190.568 436.52 189.864 436.52C187.464 436.52 185.384 436.952 183.624 437.816C181.864 438.648 180.424 439.736 179.304 441.08C178.184 442.424 177.352 443.944 176.808 445.64C176.264 447.304 175.992 448.968 175.992 450.632C175.992 452.488 176.344 454.328 177.048 456.152C177.752 457.944 178.744 459.56 180.024 461C181.304 462.408 182.84 463.56 184.632 464.456C186.456 465.32 188.472 465.752 190.68 465.752C191.288 465.752 192.04 465.688 192.936 465.56C193.832 465.4 194.728 465.064 195.624 464.552V453.272C195.624 453.048 195.592 452.792 195.528 452.504C195.464 452.216 195.352 451.944 195.192 451.688C195.064 451.432 194.904 451.224 194.712 451.064C194.52 450.872 194.296 450.776 194.04 450.776H193.8V450.296ZM207.347 457.304C207.475 458.424 207.747 459.496 208.163 460.52C208.579 461.512 209.123 462.392 209.795 463.16C210.499 463.928 211.347 464.552 212.339 465.032C213.331 465.48 214.483 465.704 215.795 465.704C216.499 465.704 217.235 465.608 218.003 465.416C218.803 465.192 219.539 464.888 220.211 464.504C220.883 464.12 221.475 463.656 221.987 463.112C222.531 462.536 222.899 461.896 223.091 461.192H223.523V464.792C223.331 464.792 223.107 464.856 222.851 464.984C222.627 465.112 222.355 465.272 222.035 465.464C221.395 465.848 220.531 466.264 219.443 466.712C218.355 467.128 216.915 467.336 215.123 467.336C213.683 467.336 212.307 467.128 210.995 466.712C209.715 466.296 208.579 465.656 207.587 464.792C206.595 463.928 205.795 462.824 205.187 461.48C204.611 460.136 204.323 458.536 204.323 456.68C204.323 455.496 204.515 454.296 204.899 453.08C205.315 451.864 205.923 450.776 206.723 449.816C207.555 448.824 208.611 448.024 209.891 447.416C211.171 446.808 212.707 446.504 214.499 446.504C216.099 446.504 217.491 446.776 218.675 447.32C219.891 447.864 220.883 448.616 221.651 449.576C222.451 450.536 223.043 451.672 223.427 452.984C223.811 454.296 224.003 455.736 224.003 457.304H207.347ZM214.307 448.088C213.187 448.088 212.211 448.312 211.379 448.76C210.579 449.208 209.891 449.784 209.315 450.488C208.739 451.192 208.291 451.992 207.971 452.888C207.651 453.784 207.443 454.68 207.347 455.576H221.027C220.995 454.648 220.819 453.736 220.499 452.84C220.211 451.944 219.795 451.144 219.251 450.44C218.707 449.736 218.019 449.176 217.187 448.76C216.355 448.312 215.395 448.088 214.307 448.088ZM247.3 463.88C247.3 464.136 247.332 464.424 247.396 464.744C247.46 465.032 247.556 465.304 247.684 465.56C247.844 465.816 248.004 466.04 248.164 466.232C248.356 466.424 248.58 466.52 248.836 466.52V467H242.644V466.52C242.868 466.52 243.076 466.424 243.268 466.232C243.46 466.04 243.62 465.816 243.748 465.56C243.908 465.304 244.02 465.032 244.084 464.744C244.148 464.424 244.18 464.136 244.18 463.88V454.952C244.18 453.8 244.02 452.792 243.7 451.928C243.38 451.064 242.948 450.344 242.404 449.768C241.86 449.192 241.236 448.776 240.532 448.52C239.86 448.232 239.172 448.088 238.468 448.088C237.764 448.088 237.06 448.232 236.356 448.52C235.684 448.808 235.076 449.192 234.532 449.672C234.02 450.12 233.588 450.664 233.236 451.304C232.916 451.912 232.756 452.552 232.756 453.224V463.88C232.756 464.136 232.788 464.424 232.852 464.744C232.916 465.032 233.012 465.304 233.14 465.56C233.3 465.816 233.46 466.04 233.62 466.232C233.812 466.424 234.036 466.52 234.292 466.52V467H228.052V466.52C228.276 466.52 228.484 466.424 228.676 466.232C228.868 466.04 229.028 465.816 229.156 465.56C229.316 465.304 229.428 465.032 229.492 464.744C229.556 464.424 229.588 464.136 229.588 463.88V450.632C229.588 450.088 229.508 449.576 229.348 449.096C229.188 448.584 228.724 448.312 227.956 448.28V447.848L232.756 446.312V448.952C232.98 448.696 233.268 448.424 233.62 448.136C233.972 447.816 234.388 447.528 234.868 447.272C235.38 446.984 235.956 446.76 236.596 446.6C237.268 446.408 238.052 446.312 238.948 446.312C240.452 446.312 241.732 446.568 242.788 447.08C243.844 447.592 244.708 448.264 245.38 449.096C246.052 449.896 246.532 450.792 246.82 451.784C247.14 452.744 247.3 453.688 247.3 454.616V463.88ZM256.191 457.304C256.319 458.424 256.591 459.496 257.007 460.52C257.423 461.512 257.967 462.392 258.639 463.16C259.343 463.928 260.191 464.552 261.183 465.032C262.175 465.48 263.327 465.704 264.639 465.704C265.343 465.704 266.079 465.608 266.847 465.416C267.647 465.192 268.383 464.888 269.055 464.504C269.727 464.12 270.319 463.656 270.831 463.112C271.375 462.536 271.743 461.896 271.935 461.192H272.367V464.792C272.175 464.792 271.951 464.856 271.695 464.984C271.471 465.112 271.199 465.272 270.879 465.464C270.239 465.848 269.375 466.264 268.287 466.712C267.199 467.128 265.759 467.336 263.967 467.336C262.527 467.336 261.151 467.128 259.839 466.712C258.559 466.296 257.423 465.656 256.431 464.792C255.439 463.928 254.639 462.824 254.031 461.48C253.455 460.136 253.167 458.536 253.167 456.68C253.167 455.496 253.359 454.296 253.743 453.08C254.159 451.864 254.767 450.776 255.567 449.816C256.399 448.824 257.455 448.024 258.735 447.416C260.015 446.808 261.551 446.504 263.343 446.504C264.943 446.504 266.335 446.776 267.519 447.32C268.735 447.864 269.727 448.616 270.495 449.576C271.295 450.536 271.887 451.672 272.271 452.984C272.655 454.296 272.847 455.736 272.847 457.304H256.191ZM263.151 448.088C262.031 448.088 261.055 448.312 260.223 448.76C259.423 449.208 258.735 449.784 258.159 450.488C257.583 451.192 257.135 451.992 256.815 452.888C256.495 453.784 256.287 454.68 256.191 455.576H269.871C269.839 454.648 269.663 453.736 269.343 452.84C269.055 451.944 268.639 451.144 268.095 450.44C267.551 449.736 266.863 449.176 266.031 448.76C265.199 448.312 264.239 448.088 263.151 448.088ZM288.56 450.344C288.176 449.704 287.776 449.304 287.359 449.144C286.944 448.984 286.464 448.904 285.92 448.904C285.568 448.904 285.184 448.984 284.768 449.144C284.384 449.304 284 449.512 283.616 449.768C283.232 450.024 282.848 450.312 282.464 450.632C282.112 450.92 281.808 451.192 281.552 451.448V463.928C281.552 464.184 281.584 464.456 281.648 464.744C281.712 465.032 281.808 465.32 281.936 465.608C282.096 465.864 282.256 466.088 282.416 466.28C282.608 466.44 282.832 466.52 283.088 466.52V467H276.848V466.52C277.072 466.52 277.28 466.44 277.472 466.28C277.664 466.088 277.824 465.864 277.952 465.608C278.112 465.32 278.224 465.032 278.288 464.744C278.352 464.456 278.384 464.184 278.384 463.928V450.536C278.384 450.088 278.24 449.64 277.952 449.192C277.664 448.744 277.248 448.456 276.704 448.328V447.944L281.552 446.504V449.384C281.84 449.032 282.144 448.696 282.464 448.376C282.784 448.024 283.136 447.72 283.52 447.464C283.936 447.176 284.384 446.952 284.864 446.792C285.344 446.6 285.904 446.504 286.544 446.504C286.992 446.504 287.568 446.6 288.272 446.792C288.976 446.984 289.552 447.192 290 447.416L288.56 450.344ZM305.691 467V464.552L305.451 464.792C304.651 465.592 303.723 466.216 302.667 466.664C301.643 467.112 300.395 467.336 298.923 467.336C297.803 467.336 296.843 467.208 296.043 466.952C295.243 466.696 294.587 466.344 294.075 465.896C293.563 465.416 293.179 464.872 292.923 464.264C292.699 463.656 292.587 463.016 292.587 462.344C292.587 461.256 292.875 460.296 293.451 459.464C294.059 458.632 294.923 457.896 296.043 457.256C297.163 456.616 298.523 456.04 300.123 455.528C301.755 454.984 303.611 454.456 305.691 453.944C305.627 452.696 305.371 451.688 304.923 450.92C304.475 450.152 303.947 449.56 303.339 449.144C302.731 448.696 302.091 448.408 301.419 448.28C300.747 448.12 300.171 448.04 299.691 448.04C298.859 448.04 298.123 448.168 297.483 448.424C296.875 448.68 296.331 449.016 295.851 449.432C295.403 449.816 295.019 450.248 294.699 450.728C294.379 451.176 294.123 451.608 293.931 452.024H293.499V448.52C293.755 448.488 293.995 448.408 294.219 448.28C294.443 448.152 294.715 448.024 295.035 447.896C295.515 447.704 296.171 447.432 297.003 447.08C297.835 446.696 299.003 446.504 300.507 446.504C302.267 446.504 303.691 446.728 304.779 447.176C305.867 447.624 306.699 448.216 307.275 448.952C307.883 449.688 308.283 450.536 308.475 451.496C308.667 452.424 308.763 453.384 308.763 454.376V463.88C308.763 464.52 308.907 465.128 309.195 465.704C309.483 466.248 309.867 466.52 310.347 466.52V467H305.691ZM305.691 462.44V455.576L305.211 455.672C304.443 455.864 303.499 456.12 302.379 456.44C301.291 456.76 300.251 457.176 299.259 457.688C298.267 458.2 297.419 458.808 296.715 459.512C296.011 460.216 295.659 461.032 295.659 461.96C295.659 462.984 296.075 463.832 296.907 464.504C297.739 465.176 298.827 465.512 300.171 465.512C301.227 465.512 302.155 465.288 302.955 464.84C303.755 464.36 304.491 463.752 305.163 463.016L305.691 462.44ZM319.661 448.472V460.04C319.661 460.872 319.677 461.624 319.709 462.296C319.741 462.968 319.821 463.528 319.949 463.976C320.077 464.424 320.269 464.776 320.525 465.032C320.781 465.256 321.133 465.368 321.581 465.368C322.253 465.368 322.877 465.048 323.453 464.408C324.061 463.768 324.445 463 324.605 462.104H325.037V465.608C324.749 465.608 324.509 465.704 324.317 465.896C324.061 466.12 323.693 466.36 323.213 466.616C322.765 466.872 322.077 467 321.149 467C319.997 467 319.101 466.776 318.461 466.328C317.821 465.88 317.357 465.288 317.069 464.552C316.781 463.816 316.605 463 316.541 462.104C316.509 461.208 316.493 460.296 316.493 459.368V448.472H313.805V446.84H316.493V442.568C316.493 442.024 316.413 441.528 316.253 441.08C316.125 440.6 315.661 440.344 314.861 440.312V439.832L319.661 438.296V446.84H325.037V448.472H319.661ZM331.284 457.304C331.412 458.424 331.684 459.496 332.1 460.52C332.516 461.512 333.06 462.392 333.732 463.16C334.436 463.928 335.284 464.552 336.276 465.032C337.268 465.48 338.42 465.704 339.732 465.704C340.436 465.704 341.172 465.608 341.94 465.416C342.74 465.192 343.476 464.888 344.148 464.504C344.82 464.12 345.412 463.656 345.924 463.112C346.468 462.536 346.836 461.896 347.028 461.192H347.46V464.792C347.268 464.792 347.044 464.856 346.788 464.984C346.564 465.112 346.292 465.272 345.972 465.464C345.332 465.848 344.468 466.264 343.38 466.712C342.292 467.128 340.852 467.336 339.06 467.336C337.62 467.336 336.244 467.128 334.932 466.712C333.652 466.296 332.516 465.656 331.524 464.792C330.532 463.928 329.732 462.824 329.124 461.48C328.548 460.136 328.26 458.536 328.26 456.68C328.26 455.496 328.452 454.296 328.836 453.08C329.252 451.864 329.86 450.776 330.66 449.816C331.492 448.824 332.548 448.024 333.828 447.416C335.108 446.808 336.644 446.504 338.436 446.504C340.036 446.504 341.428 446.776 342.612 447.32C343.828 447.864 344.82 448.616 345.588 449.576C346.388 450.536 346.98 451.672 347.364 452.984C347.748 454.296 347.94 455.736 347.94 457.304H331.284ZM338.244 448.088C337.124 448.088 336.148 448.312 335.316 448.76C334.516 449.208 333.828 449.784 333.252 450.488C332.676 451.192 332.228 451.992 331.908 452.888C331.588 453.784 331.38 454.68 331.284 455.576H344.964C344.932 454.648 344.756 453.736 344.436 452.84C344.148 451.944 343.732 451.144 343.188 450.44C342.644 449.736 341.956 449.176 341.124 448.76C340.292 448.312 339.332 448.088 338.244 448.088ZM372.09 473.864C371.642 475.208 371.066 476.12 370.362 476.6C369.69 477.08 368.986 477.32 368.25 477.32C367.77 477.32 367.338 477.256 366.954 477.128C366.602 477 366.282 476.84 365.994 476.648C365.738 476.488 365.53 476.328 365.37 476.168C365.21 476.008 365.114 475.88 365.082 475.784L366.666 471.896C366.826 472.472 366.986 472.904 367.146 473.192C367.306 473.512 367.53 473.8 367.818 474.056C368.106 474.312 368.458 474.44 368.874 474.44C369.642 474.44 370.25 473.88 370.698 472.76L373.05 466.856L365.322 449.384C365.162 449 364.89 448.568 364.506 448.088C364.154 447.576 363.658 447.32 363.018 447.32V446.84H369.354V447.32C369.226 447.32 369.066 447.432 368.874 447.656C368.682 447.88 368.586 448.168 368.586 448.52C368.586 448.808 368.65 449.064 368.778 449.288L374.682 462.872L380.346 449C380.442 448.776 380.49 448.568 380.49 448.376C380.49 448.056 380.378 447.8 380.154 447.608C379.962 447.416 379.754 447.32 379.53 447.32V446.84H384.186V447.32C383.674 447.32 383.226 447.544 382.842 447.992C382.49 448.408 382.202 448.888 381.978 449.432L372.09 473.864ZM397.224 467.336C395.624 467.336 394.184 467.08 392.904 466.568C391.624 466.024 390.52 465.304 389.592 464.408C388.696 463.48 387.992 462.392 387.48 461.144C387 459.896 386.76 458.536 386.76 457.064C386.76 455.496 387.032 454.072 387.576 452.792C388.12 451.48 388.872 450.36 389.832 449.432C390.792 448.504 391.928 447.784 393.24 447.272C394.552 446.76 395.976 446.504 397.512 446.504C399.048 446.504 400.456 446.76 401.736 447.272C403.016 447.752 404.12 448.44 405.048 449.336C405.976 450.232 406.696 451.304 407.208 452.552C407.72 453.768 407.976 455.112 407.976 456.584C407.976 457.96 407.736 459.304 407.256 460.616C406.808 461.896 406.12 463.032 405.192 464.024C404.296 465.016 403.176 465.816 401.832 466.424C400.52 467.032 398.984 467.336 397.224 467.336ZM396.936 448.088C395.784 448.152 394.76 448.44 393.864 448.952C393 449.432 392.264 450.072 391.656 450.872C391.08 451.64 390.632 452.52 390.312 453.512C390.024 454.504 389.88 455.512 389.88 456.536C389.88 457.72 390.056 458.872 390.408 459.992C390.792 461.08 391.32 462.056 391.992 462.92C392.696 463.784 393.528 464.472 394.488 464.984C395.448 465.496 396.52 465.752 397.704 465.752C398.888 465.752 399.928 465.496 400.824 464.984C401.752 464.472 402.52 463.816 403.128 463.016C403.736 462.184 404.184 461.256 404.472 460.232C404.792 459.208 404.952 458.184 404.952 457.16C404.952 456.104 404.792 455.048 404.472 453.992C404.152 452.904 403.656 451.928 402.984 451.064C402.312 450.168 401.464 449.448 400.44 448.904C399.448 448.36 398.28 448.088 396.936 448.088ZM431.277 463.88C431.277 464.104 431.309 464.376 431.373 464.696C431.437 464.984 431.517 465.272 431.613 465.56C431.741 465.816 431.901 466.04 432.093 466.232C432.285 466.424 432.509 466.52 432.765 466.52V467H428.109V464.36C427.629 465.064 426.925 465.752 425.997 466.424C425.069 467.096 423.869 467.432 422.397 467.432C420.541 467.432 419.069 467.112 417.981 466.472C416.893 465.832 416.061 465.016 415.485 464.024C414.909 463.032 414.541 461.96 414.381 460.808C414.221 459.624 414.141 458.52 414.141 457.496V450.632C414.141 450.344 414.125 450.072 414.093 449.816C414.093 449.528 414.029 449.272 413.901 449.048C413.805 448.824 413.645 448.648 413.421 448.52C413.197 448.36 412.877 448.28 412.461 448.28V447.848L417.309 446.312V458.552C417.309 460.984 417.837 462.776 418.893 463.928C419.949 465.08 421.245 465.656 422.781 465.656C423.613 465.656 424.349 465.48 424.989 465.128C425.661 464.744 426.221 464.296 426.669 463.784C427.149 463.272 427.501 462.744 427.725 462.2C427.981 461.656 428.109 461.208 428.109 460.856V450.632C428.109 450.344 428.093 450.072 428.061 449.816C428.061 449.528 427.997 449.272 427.869 449.048C427.773 448.824 427.613 448.648 427.389 448.52C427.165 448.36 426.845 448.28 426.429 448.28V447.848L431.277 446.312V463.88ZM449.153 450.344C448.769 449.704 448.369 449.304 447.953 449.144C447.537 448.984 447.057 448.904 446.513 448.904C446.161 448.904 445.777 448.984 445.361 449.144C444.977 449.304 444.593 449.512 444.209 449.768C443.825 450.024 443.441 450.312 443.057 450.632C442.705 450.92 442.401 451.192 442.145 451.448V463.928C442.145 464.184 442.177 464.456 442.241 464.744C442.305 465.032 442.401 465.32 442.529 465.608C442.689 465.864 442.849 466.088 443.009 466.28C443.201 466.44 443.425 466.52 443.681 466.52V467H437.441V466.52C437.665 466.52 437.873 466.44 438.065 466.28C438.257 466.088 438.417 465.864 438.545 465.608C438.705 465.32 438.817 465.032 438.881 464.744C438.945 464.456 438.977 464.184 438.977 463.928V450.536C438.977 450.088 438.833 449.64 438.545 449.192C438.257 448.744 437.841 448.456 437.297 448.328V447.944L442.145 446.504V449.384C442.433 449.032 442.737 448.696 443.057 448.376C443.377 448.024 443.729 447.72 444.113 447.464C444.529 447.176 444.977 446.952 445.457 446.792C445.937 446.6 446.497 446.504 447.137 446.504C447.585 446.504 448.161 446.6 448.865 446.792C449.569 446.984 450.145 447.192 450.593 447.416L449.153 450.344ZM485.09 463.88C485.09 464.104 485.122 464.376 485.186 464.696C485.25 464.984 485.33 465.272 485.426 465.56C485.554 465.816 485.714 466.04 485.906 466.232C486.098 466.424 486.322 466.52 486.578 466.52V467H481.922V464.36C481.442 465.064 480.738 465.752 479.81 466.424C478.882 467.096 477.682 467.432 476.21 467.432C474.354 467.432 472.882 467.112 471.794 466.472C470.706 465.832 469.874 465.016 469.298 464.024C468.722 463.032 468.354 461.96 468.194 460.808C468.034 459.624 467.954 458.52 467.954 457.496V450.632C467.954 450.344 467.938 450.072 467.906 449.816C467.906 449.528 467.842 449.272 467.714 449.048C467.618 448.824 467.458 448.648 467.234 448.52C467.01 448.36 466.69 448.28 466.274 448.28V447.848L471.122 446.312V458.552C471.122 460.984 471.65 462.776 472.706 463.928C473.762 465.08 475.058 465.656 476.594 465.656C477.426 465.656 478.162 465.48 478.802 465.128C479.474 464.744 480.034 464.296 480.482 463.784C480.962 463.272 481.314 462.744 481.538 462.2C481.794 461.656 481.922 461.208 481.922 460.856V450.632C481.922 450.344 481.906 450.072 481.874 449.816C481.874 449.528 481.81 449.272 481.682 449.048C481.586 448.824 481.426 448.648 481.202 448.52C480.978 448.36 480.658 448.28 480.242 448.28V447.848L485.09 446.312V463.88ZM510.55 463.88C510.55 464.136 510.582 464.424 510.646 464.744C510.71 465.032 510.806 465.304 510.934 465.56C511.094 465.816 511.254 466.04 511.414 466.232C511.606 466.424 511.83 466.52 512.086 466.52V467H505.894V466.52C506.118 466.52 506.326 466.424 506.518 466.232C506.71 466.04 506.87 465.816 506.998 465.56C507.158 465.304 507.27 465.032 507.334 464.744C507.398 464.424 507.43 464.136 507.43 463.88V454.952C507.43 453.8 507.27 452.792 506.95 451.928C506.63 451.064 506.198 450.344 505.654 449.768C505.11 449.192 504.486 448.776 503.782 448.52C503.11 448.232 502.422 448.088 501.718 448.088C501.014 448.088 500.31 448.232 499.606 448.52C498.934 448.808 498.326 449.192 497.782 449.672C497.27 450.12 496.838 450.664 496.486 451.304C496.166 451.912 496.006 452.552 496.006 453.224V463.88C496.006 464.136 496.038 464.424 496.102 464.744C496.166 465.032 496.262 465.304 496.39 465.56C496.55 465.816 496.71 466.04 496.87 466.232C497.062 466.424 497.286 466.52 497.542 466.52V467H491.302V466.52C491.526 466.52 491.734 466.424 491.926 466.232C492.118 466.04 492.278 465.816 492.406 465.56C492.566 465.304 492.678 465.032 492.742 464.744C492.806 464.424 492.838 464.136 492.838 463.88V450.632C492.838 450.088 492.758 449.576 492.598 449.096C492.438 448.584 491.974 448.312 491.206 448.28V447.848L496.006 446.312V448.952C496.23 448.696 496.518 448.424 496.87 448.136C497.222 447.816 497.638 447.528 498.118 447.272C498.63 446.984 499.206 446.76 499.846 446.6C500.518 446.408 501.302 446.312 502.198 446.312C503.702 446.312 504.982 446.568 506.038 447.08C507.094 447.592 507.958 448.264 508.63 449.096C509.302 449.896 509.782 450.792 510.07 451.784C510.39 452.744 510.55 453.688 510.55 454.616V463.88ZM517.473 467V466.52C517.729 466.52 517.953 466.424 518.145 466.232C518.337 466.04 518.497 465.816 518.625 465.56C518.753 465.304 518.849 465.032 518.913 464.744C518.977 464.424 519.009 464.136 519.009 463.88V450.584C519.009 450.04 518.929 449.528 518.769 449.048C518.609 448.536 518.145 448.264 517.377 448.232V447.8L522.177 446.264V463.88C522.177 464.136 522.209 464.424 522.273 464.744C522.337 465.032 522.433 465.304 522.561 465.56C522.689 465.816 522.849 466.04 523.041 466.232C523.233 466.424 523.457 466.52 523.713 466.52V467H517.473ZM517.713 441.656C517.713 441.016 517.921 440.472 518.337 440.024C518.785 439.576 519.329 439.352 519.969 439.352C520.609 439.352 521.153 439.576 521.601 440.024C522.049 440.472 522.273 441.016 522.273 441.656C522.273 442.296 522.049 442.824 521.601 443.24C521.153 443.656 520.609 443.864 519.969 443.864C519.329 443.864 518.785 443.656 518.337 443.24C517.921 442.824 517.713 442.296 517.713 441.656ZM542.624 476.6C542.88 476.6 543.104 476.504 543.296 476.312C543.488 476.12 543.648 475.896 543.776 475.64C543.904 475.384 544 475.096 544.064 474.776C544.128 474.488 544.16 474.216 544.16 473.96V464.888C543.584 465.624 542.88 466.216 542.048 466.664C541.216 467.112 540.08 467.336 538.64 467.336C536.944 467.336 535.456 467.048 534.176 466.472C532.928 465.864 531.888 465.064 531.056 464.072C530.224 463.08 529.6 461.96 529.184 460.712C528.8 459.464 528.608 458.184 528.608 456.872C528.608 455.592 528.832 454.328 529.28 453.08C529.76 451.832 530.416 450.728 531.248 449.768C532.112 448.776 533.152 447.992 534.368 447.416C535.616 446.808 537.008 446.504 538.544 446.504C539.664 446.504 540.768 446.776 541.856 447.32C542.976 447.832 543.856 448.44 544.496 449.144L547.328 446.12V473.96C547.328 474.216 547.36 474.488 547.424 474.776C547.488 475.096 547.584 475.384 547.712 475.64C547.84 475.896 548 476.12 548.192 476.312C548.384 476.504 548.608 476.6 548.864 476.6V477.08H542.624V476.6ZM538.928 465.704C539.6 465.704 540.24 465.576 540.848 465.32C541.488 465.032 542.048 464.664 542.528 464.216C543.04 463.736 543.44 463.192 543.728 462.584C544.016 461.944 544.16 461.256 544.16 460.52V453.992C544.16 453.064 543.984 452.248 543.632 451.544C543.28 450.808 542.832 450.2 542.288 449.72C541.744 449.208 541.12 448.824 540.416 448.568C539.712 448.312 539.008 448.184 538.304 448.184C537.248 448.184 536.304 448.424 535.472 448.904C534.672 449.352 533.984 449.96 533.408 450.728C532.864 451.496 532.448 452.36 532.16 453.32C531.872 454.28 531.728 455.256 531.728 456.248C531.728 457.368 531.888 458.488 532.208 459.608C532.528 460.728 532.992 461.736 533.6 462.632C534.24 463.496 534.992 464.216 535.856 464.792C536.752 465.368 537.776 465.672 538.928 465.704ZM572.512 463.88C572.512 464.104 572.544 464.376 572.608 464.696C572.672 464.984 572.752 465.272 572.848 465.56C572.976 465.816 573.136 466.04 573.328 466.232C573.52 466.424 573.744 466.52 574 466.52V467H569.344V464.36C568.864 465.064 568.16 465.752 567.232 466.424C566.304 467.096 565.104 467.432 563.632 467.432C561.776 467.432 560.304 467.112 559.216 466.472C558.128 465.832 557.296 465.016 556.72 464.024C556.144 463.032 555.776 461.96 555.616 460.808C555.456 459.624 555.376 458.52 555.376 457.496V450.632C555.376 450.344 555.36 450.072 555.328 449.816C555.328 449.528 555.264 449.272 555.136 449.048C555.04 448.824 554.88 448.648 554.656 448.52C554.432 448.36 554.112 448.28 553.696 448.28V447.848L558.544 446.312V458.552C558.544 460.984 559.072 462.776 560.128 463.928C561.184 465.08 562.48 465.656 564.016 465.656C564.848 465.656 565.584 465.48 566.224 465.128C566.896 464.744 567.456 464.296 567.904 463.784C568.384 463.272 568.736 462.744 568.96 462.2C569.216 461.656 569.344 461.208 569.344 460.856V450.632C569.344 450.344 569.328 450.072 569.296 449.816C569.296 449.528 569.232 449.272 569.104 449.048C569.008 448.824 568.848 448.648 568.624 448.52C568.4 448.36 568.08 448.28 567.664 448.28V447.848L572.512 446.312V463.88ZM581.316 457.304C581.444 458.424 581.716 459.496 582.132 460.52C582.548 461.512 583.092 462.392 583.764 463.16C584.468 463.928 585.316 464.552 586.308 465.032C587.3 465.48 588.452 465.704 589.764 465.704C590.468 465.704 591.204 465.608 591.972 465.416C592.772 465.192 593.508 464.888 594.18 464.504C594.852 464.12 595.444 463.656 595.956 463.112C596.5 462.536 596.868 461.896 597.06 461.192H597.492V464.792C597.3 464.792 597.076 464.856 596.82 464.984C596.596 465.112 596.324 465.272 596.004 465.464C595.364 465.848 594.5 466.264 593.412 466.712C592.324 467.128 590.884 467.336 589.092 467.336C587.652 467.336 586.276 467.128 584.964 466.712C583.684 466.296 582.548 465.656 581.556 464.792C580.564 463.928 579.764 462.824 579.156 461.48C578.58 460.136 578.292 458.536 578.292 456.68C578.292 455.496 578.484 454.296 578.868 453.08C579.284 451.864 579.892 450.776 580.692 449.816C581.524 448.824 582.58 448.024 583.86 447.416C585.14 446.808 586.676 446.504 588.468 446.504C590.068 446.504 591.46 446.776 592.644 447.32C593.86 447.864 594.852 448.616 595.62 449.576C596.42 450.536 597.012 451.672 597.396 452.984C597.78 454.296 597.972 455.736 597.972 457.304H581.316ZM588.276 448.088C587.156 448.088 586.18 448.312 585.348 448.76C584.548 449.208 583.86 449.784 583.284 450.488C582.708 451.192 582.26 451.992 581.94 452.888C581.62 453.784 581.412 454.68 581.316 455.576H594.996C594.964 454.648 594.788 453.736 594.468 452.84C594.18 451.944 593.764 451.144 593.22 450.44C592.676 449.736 591.988 449.176 591.156 448.76C590.324 448.312 589.364 448.088 588.276 448.088ZM633.881 458.504C633.881 460.104 633.561 461.48 632.921 462.632C632.281 463.752 631.449 464.664 630.425 465.368C629.433 466.072 628.297 466.584 627.017 466.904C625.769 467.224 624.521 467.384 623.273 467.384C621.993 467.384 620.889 467.256 619.961 467C619.033 466.744 618.185 466.504 617.417 466.28C616.905 466.12 616.441 465.992 616.025 465.896C615.609 465.768 615.193 465.704 614.777 465.704V460.232H615.257C615.257 461.448 615.561 462.424 616.169 463.16C616.809 463.864 617.545 464.408 618.377 464.792C619.209 465.176 620.041 465.432 620.873 465.56C621.705 465.656 622.313 465.704 622.697 465.704C624.073 465.704 625.257 465.512 626.249 465.128C627.241 464.712 628.057 464.184 628.697 463.544C629.337 462.872 629.801 462.136 630.089 461.336C630.409 460.536 630.569 459.72 630.569 458.888C630.569 457.832 630.345 456.952 629.897 456.248C629.449 455.512 628.857 454.872 628.121 454.328C627.417 453.784 626.601 453.32 625.673 452.936C624.745 452.552 623.801 452.168 622.841 451.784C621.753 451.368 620.681 450.936 619.625 450.488C618.569 450.04 617.625 449.496 616.793 448.856C615.961 448.184 615.289 447.4 614.777 446.504C614.265 445.576 614.009 444.44 614.009 443.096C614.009 441.688 614.281 440.472 614.825 439.448C615.369 438.392 616.089 437.528 616.985 436.856C617.913 436.184 618.953 435.688 620.105 435.368C621.289 435.016 622.489 434.84 623.705 434.84C624.537 434.84 625.321 434.904 626.057 435.032C626.793 435.128 627.497 435.256 628.169 435.416C628.713 435.544 629.241 435.656 629.753 435.752C630.265 435.816 630.761 435.848 631.241 435.848V440.792H630.761C630.697 439.128 630.041 438.008 628.793 437.432C627.545 436.824 625.817 436.52 623.609 436.52C622.329 436.52 621.273 436.744 620.441 437.192C619.641 437.608 619.001 438.136 618.521 438.776C618.041 439.384 617.705 440.056 617.513 440.792C617.353 441.496 617.273 442.12 617.273 442.664C617.273 443.56 617.465 444.328 617.849 444.968C618.265 445.608 618.809 446.168 619.481 446.648C620.153 447.128 620.921 447.56 621.785 447.944C622.681 448.328 623.609 448.696 624.569 449.048C625.657 449.464 626.761 449.912 627.881 450.392C629.001 450.872 629.993 451.464 630.857 452.168C631.753 452.872 632.473 453.736 633.017 454.76C633.593 455.784 633.881 457.032 633.881 458.504ZM648.197 446.504C649.925 446.504 651.413 446.808 652.661 447.416C653.941 447.992 654.997 448.76 655.829 449.72C656.693 450.68 657.333 451.784 657.749 453.032C658.165 454.28 658.373 455.56 658.373 456.872C658.373 458.152 658.165 459.416 657.749 460.664C657.365 461.912 656.757 463.032 655.925 464.024C655.125 465.016 654.117 465.816 652.901 466.424C651.685 467.032 650.245 467.336 648.581 467.336C647.589 467.336 646.565 467.08 645.509 466.568C644.485 466.024 643.557 465.352 642.725 464.552V473.96C642.725 474.216 642.757 474.488 642.821 474.776C642.885 475.096 642.981 475.384 643.109 475.64C643.269 475.896 643.429 476.12 643.589 476.312C643.781 476.504 644.005 476.6 644.261 476.6V477.08H638.021V476.6C638.245 476.6 638.453 476.504 638.645 476.312C638.837 476.12 638.997 475.896 639.125 475.64C639.285 475.384 639.397 475.096 639.461 474.776C639.525 474.488 639.557 474.216 639.557 473.96V449.672C639.557 449.384 639.541 449.112 639.509 448.856C639.509 448.568 639.461 448.328 639.365 448.136C639.269 447.912 639.109 447.736 638.885 447.608C638.693 447.448 638.405 447.352 638.021 447.32V446.84H642.725V448.952C643.365 448.184 644.133 447.592 645.029 447.176C645.957 446.728 647.013 446.504 648.197 446.504ZM648.629 465.704C649.749 465.672 650.725 465.416 651.557 464.936C652.389 464.456 653.077 463.832 653.621 463.064C654.165 462.296 654.565 461.448 654.821 460.52C655.077 459.56 655.205 458.568 655.205 457.544C655.205 456.392 655.045 455.256 654.725 454.136C654.405 453.016 653.941 452.024 653.333 451.16C652.725 450.264 651.973 449.544 651.077 449C650.213 448.424 649.221 448.136 648.101 448.136C647.429 448.136 646.757 448.264 646.085 448.52C645.445 448.776 644.869 449.144 644.357 449.624C643.877 450.104 643.477 450.68 643.157 451.352C642.869 451.992 642.725 452.712 642.725 453.512V459.8C642.725 460.664 642.901 461.464 643.253 462.2C643.605 462.904 644.053 463.528 644.597 464.072C645.173 464.584 645.813 464.984 646.517 465.272C647.221 465.56 647.925 465.704 648.629 465.704ZM672.756 467.336C671.156 467.336 669.716 467.08 668.436 466.568C667.156 466.024 666.052 465.304 665.124 464.408C664.228 463.48 663.524 462.392 663.012 461.144C662.532 459.896 662.292 458.536 662.292 457.064C662.292 455.496 662.564 454.072 663.108 452.792C663.652 451.48 664.404 450.36 665.364 449.432C666.324 448.504 667.46 447.784 668.772 447.272C670.084 446.76 671.508 446.504 673.044 446.504C674.58 446.504 675.988 446.76 677.268 447.272C678.548 447.752 679.652 448.44 680.58 449.336C681.508 450.232 682.228 451.304 682.74 452.552C683.252 453.768 683.508 455.112 683.508 456.584C683.508 457.96 683.268 459.304 682.788 460.616C682.34 461.896 681.652 463.032 680.724 464.024C679.828 465.016 678.708 465.816 677.364 466.424C676.052 467.032 674.516 467.336 672.756 467.336ZM672.468 448.088C671.316 448.152 670.292 448.44 669.396 448.952C668.532 449.432 667.796 450.072 667.188 450.872C666.612 451.64 666.164 452.52 665.844 453.512C665.556 454.504 665.412 455.512 665.412 456.536C665.412 457.72 665.588 458.872 665.94 459.992C666.324 461.08 666.852 462.056 667.524 462.92C668.228 463.784 669.06 464.472 670.02 464.984C670.98 465.496 672.052 465.752 673.236 465.752C674.42 465.752 675.46 465.496 676.356 464.984C677.284 464.472 678.052 463.816 678.66 463.016C679.268 462.184 679.716 461.256 680.004 460.232C680.324 459.208 680.484 458.184 680.484 457.16C680.484 456.104 680.324 455.048 680.004 453.992C679.684 452.904 679.188 451.928 678.516 451.064C677.844 450.168 676.996 449.448 675.972 448.904C674.98 448.36 673.812 448.088 672.468 448.088ZM692.505 448.472V460.04C692.505 460.872 692.521 461.624 692.553 462.296C692.585 462.968 692.665 463.528 692.793 463.976C692.921 464.424 693.113 464.776 693.369 465.032C693.625 465.256 693.977 465.368 694.425 465.368C695.097 465.368 695.721 465.048 696.297 464.408C696.905 463.768 697.289 463 697.449 462.104H697.881V465.608C697.593 465.608 697.353 465.704 697.161 465.896C696.905 466.12 696.537 466.36 696.057 466.616C695.609 466.872 694.921 467 693.993 467C692.841 467 691.945 466.776 691.305 466.328C690.665 465.88 690.201 465.288 689.913 464.552C689.625 463.816 689.449 463 689.385 462.104C689.353 461.208 689.337 460.296 689.337 459.368V448.472H686.649V446.84H689.337V442.568C689.337 442.024 689.257 441.528 689.097 441.08C688.969 440.6 688.505 440.344 687.705 440.312V439.832L692.505 438.296V446.84H697.881V448.472H692.505ZM702.16 467V466.52C702.416 466.52 702.64 466.424 702.832 466.232C703.024 466.04 703.184 465.816 703.312 465.56C703.44 465.304 703.536 465.032 703.6 464.744C703.664 464.424 703.696 464.136 703.696 463.88V450.584C703.696 450.04 703.616 449.528 703.456 449.048C703.296 448.536 702.832 448.264 702.064 448.232V447.8L706.864 446.264V463.88C706.864 464.136 706.896 464.424 706.96 464.744C707.024 465.032 707.12 465.304 707.248 465.56C707.376 465.816 707.536 466.04 707.728 466.232C707.92 466.424 708.144 466.52 708.4 466.52V467H702.16ZM702.4 441.656C702.4 441.016 702.608 440.472 703.024 440.024C703.472 439.576 704.016 439.352 704.656 439.352C705.296 439.352 705.84 439.576 706.288 440.024C706.736 440.472 706.96 441.016 706.96 441.656C706.96 442.296 706.736 442.824 706.288 443.24C705.84 443.656 705.296 443.864 704.656 443.864C704.016 443.864 703.472 443.656 703.024 443.24C702.608 442.824 702.4 442.296 702.4 441.656ZM717.999 448.472V463.88C717.999 464.136 718.031 464.424 718.095 464.744C718.159 465.032 718.255 465.304 718.383 465.56C718.543 465.816 718.703 466.04 718.863 466.232C719.055 466.424 719.279 466.52 719.535 466.52V467H713.295V466.52C713.519 466.52 713.727 466.424 713.919 466.232C714.111 466.04 714.271 465.816 714.399 465.56C714.559 465.304 714.671 465.032 714.735 464.744C714.799 464.424 714.831 464.136 714.831 463.88V448.472H712.431V446.84H714.831V442.952C714.831 441.96 714.863 441 714.927 440.072C714.991 439.144 715.183 438.312 715.503 437.576C715.823 436.84 716.303 436.248 716.943 435.8C717.615 435.352 718.527 435.128 719.679 435.128C720.319 435.128 720.863 435.208 721.311 435.368C721.791 435.496 722.191 435.656 722.511 435.848C722.863 436.008 723.151 436.168 723.375 436.328C723.599 436.456 723.791 436.52 723.951 436.52V440.024H723.519C723.359 439.096 722.943 438.328 722.271 437.72C721.599 437.08 720.927 436.76 720.255 436.76C719.327 436.76 718.719 437.256 718.431 438.248C718.143 439.208 717.999 440.552 717.999 442.28V446.84H723.423V448.472H717.999ZM734.668 473.864C734.22 475.208 733.644 476.12 732.94 476.6C732.268 477.08 731.564 477.32 730.828 477.32C730.348 477.32 729.916 477.256 729.532 477.128C729.18 477 728.86 476.84 728.572 476.648C728.316 476.488 728.108 476.328 727.948 476.168C727.788 476.008 727.692 475.88 727.66 475.784L729.244 471.896C729.404 472.472 729.564 472.904 729.724 473.192C729.884 473.512 730.108 473.8 730.396 474.056C730.684 474.312 731.036 474.44 731.452 474.44C732.22 474.44 732.828 473.88 733.276 472.76L735.628 466.856L727.9 449.384C727.74 449 727.468 448.568 727.084 448.088C726.732 447.576 726.236 447.32 725.596 447.32V446.84H731.932V447.32C731.804 447.32 731.644 447.432 731.452 447.656C731.26 447.88 731.164 448.168 731.164 448.52C731.164 448.808 731.228 449.064 731.356 449.288L737.26 462.872L742.924 449C743.02 448.776 743.068 448.568 743.068 448.376C743.068 448.056 742.956 447.8 742.732 447.608C742.54 447.416 742.332 447.32 742.108 447.32V446.84H746.764V447.32C746.252 447.32 745.804 447.544 745.42 447.992C745.068 448.408 744.78 448.888 744.556 449.432L734.668 473.864ZM779.903 465.272C779.647 465.272 779.407 465.336 779.183 465.464C778.959 465.56 778.703 465.688 778.415 465.848C777.871 466.168 777.183 466.504 776.351 466.856C775.519 467.176 774.431 467.336 773.087 467.336C771.455 467.336 769.935 467.08 768.527 466.568C767.151 466.024 765.951 465.288 764.927 464.36C763.935 463.4 763.151 462.296 762.575 461.048C762.031 459.768 761.759 458.392 761.759 456.92C761.759 455.544 761.999 454.232 762.479 452.984C762.991 451.736 763.711 450.632 764.639 449.672C765.567 448.712 766.703 447.944 768.047 447.368C769.423 446.792 770.975 446.504 772.703 446.504C773.887 446.504 774.847 446.648 775.583 446.936C776.319 447.192 776.943 447.448 777.455 447.704C777.743 447.864 778.015 447.992 778.271 448.088C778.559 448.184 778.847 448.232 779.135 448.232V451.88H778.655C778.495 451.272 778.207 450.744 777.791 450.296C777.375 449.816 776.895 449.416 776.351 449.096C775.807 448.776 775.215 448.536 774.575 448.376C773.935 448.216 773.311 448.136 772.703 448.136C771.391 448.136 770.239 448.376 769.247 448.856C768.255 449.304 767.439 449.912 766.799 450.68C766.159 451.416 765.679 452.264 765.359 453.224C765.039 454.184 764.879 455.176 764.879 456.2C764.879 457.384 765.071 458.552 765.455 459.704C765.839 460.824 766.383 461.832 767.087 462.728C767.823 463.624 768.703 464.344 769.727 464.888C770.751 465.432 771.903 465.704 773.183 465.704C774.079 465.704 774.895 465.576 775.631 465.32C776.399 465.064 777.039 464.728 777.551 464.312C778.095 463.896 778.527 463.448 778.847 462.968C779.167 462.456 779.359 461.976 779.423 461.528H779.903V465.272ZM793.178 467.336C791.578 467.336 790.138 467.08 788.858 466.568C787.578 466.024 786.474 465.304 785.546 464.408C784.65 463.48 783.946 462.392 783.434 461.144C782.954 459.896 782.714 458.536 782.714 457.064C782.714 455.496 782.986 454.072 783.53 452.792C784.074 451.48 784.826 450.36 785.786 449.432C786.746 448.504 787.882 447.784 789.194 447.272C790.506 446.76 791.93 446.504 793.466 446.504C795.002 446.504 796.41 446.76 797.69 447.272C798.97 447.752 800.074 448.44 801.002 449.336C801.93 450.232 802.65 451.304 803.162 452.552C803.674 453.768 803.93 455.112 803.93 456.584C803.93 457.96 803.69 459.304 803.21 460.616C802.762 461.896 802.074 463.032 801.146 464.024C800.25 465.016 799.13 465.816 797.786 466.424C796.474 467.032 794.938 467.336 793.178 467.336ZM792.89 448.088C791.738 448.152 790.714 448.44 789.818 448.952C788.954 449.432 788.218 450.072 787.61 450.872C787.034 451.64 786.586 452.52 786.266 453.512C785.978 454.504 785.834 455.512 785.834 456.536C785.834 457.72 786.01 458.872 786.362 459.992C786.746 461.08 787.274 462.056 787.946 462.92C788.65 463.784 789.482 464.472 790.442 464.984C791.402 465.496 792.474 465.752 793.658 465.752C794.842 465.752 795.882 465.496 796.778 464.984C797.706 464.472 798.474 463.816 799.082 463.016C799.69 462.184 800.138 461.256 800.426 460.232C800.746 459.208 800.906 458.184 800.906 457.16C800.906 456.104 800.746 455.048 800.426 453.992C800.106 452.904 799.61 451.928 798.938 451.064C798.266 450.168 797.418 449.448 796.394 448.904C795.402 448.36 794.234 448.088 792.89 448.088ZM808.415 467V466.52C808.671 466.52 808.895 466.424 809.087 466.232C809.279 466.04 809.439 465.816 809.567 465.56C809.727 465.304 809.839 465.032 809.903 464.744C809.967 464.424 809.999 464.136 809.999 463.88V439.304C809.999 438.76 809.919 438.248 809.759 437.768C809.599 437.288 809.119 437.032 808.319 437V436.52L813.167 435.032V463.88C813.167 464.136 813.199 464.424 813.263 464.744C813.327 465.032 813.423 465.304 813.551 465.56C813.711 465.816 813.871 466.04 814.031 466.232C814.223 466.424 814.447 466.52 814.703 466.52V467H808.415ZM819.524 467V466.52C819.78 466.52 820.004 466.424 820.196 466.232C820.388 466.04 820.548 465.816 820.676 465.56C820.836 465.304 820.948 465.032 821.012 464.744C821.076 464.424 821.108 464.136 821.108 463.88V439.304C821.108 438.76 821.028 438.248 820.868 437.768C820.708 437.288 820.228 437.032 819.428 437V436.52L824.276 435.032V463.88C824.276 464.136 824.308 464.424 824.372 464.744C824.436 465.032 824.532 465.304 824.66 465.56C824.82 465.816 824.98 466.04 825.14 466.232C825.332 466.424 825.556 466.52 825.812 466.52V467H819.524ZM843.113 467V464.552L842.873 464.792C842.073 465.592 841.145 466.216 840.089 466.664C839.065 467.112 837.817 467.336 836.345 467.336C835.225 467.336 834.265 467.208 833.465 466.952C832.665 466.696 832.009 466.344 831.497 465.896C830.985 465.416 830.601 464.872 830.345 464.264C830.121 463.656 830.009 463.016 830.009 462.344C830.009 461.256 830.297 460.296 830.873 459.464C831.481 458.632 832.345 457.896 833.465 457.256C834.585 456.616 835.945 456.04 837.545 455.528C839.177 454.984 841.033 454.456 843.113 453.944C843.049 452.696 842.793 451.688 842.345 450.92C841.897 450.152 841.369 449.56 840.761 449.144C840.153 448.696 839.513 448.408 838.841 448.28C838.169 448.12 837.593 448.04 837.113 448.04C836.281 448.04 835.545 448.168 834.905 448.424C834.297 448.68 833.753 449.016 833.273 449.432C832.825 449.816 832.441 450.248 832.121 450.728C831.801 451.176 831.545 451.608 831.353 452.024H830.921V448.52C831.177 448.488 831.417 448.408 831.641 448.28C831.865 448.152 832.137 448.024 832.457 447.896C832.937 447.704 833.593 447.432 834.425 447.08C835.257 446.696 836.425 446.504 837.929 446.504C839.689 446.504 841.113 446.728 842.201 447.176C843.289 447.624 844.121 448.216 844.697 448.952C845.305 449.688 845.705 450.536 845.897 451.496C846.089 452.424 846.185 453.384 846.185 454.376V463.88C846.185 464.52 846.329 465.128 846.617 465.704C846.905 466.248 847.289 466.52 847.769 466.52V467H843.113ZM843.113 462.44V455.576L842.633 455.672C841.865 455.864 840.921 456.12 839.801 456.44C838.713 456.76 837.673 457.176 836.681 457.688C835.689 458.2 834.841 458.808 834.137 459.512C833.433 460.216 833.081 461.032 833.081 461.96C833.081 462.984 833.497 463.832 834.329 464.504C835.161 465.176 836.249 465.512 837.593 465.512C838.649 465.512 839.577 465.288 840.377 464.84C841.177 464.36 841.913 463.752 842.585 463.016L843.113 462.44ZM862.363 475.928C863.323 475.928 864.235 475.832 865.099 475.64C865.963 475.48 866.715 475.24 867.355 474.92C868.027 474.6 868.555 474.216 868.939 473.768C869.323 473.32 869.515 472.84 869.515 472.328C869.515 471.784 869.243 471.32 868.699 470.936C868.187 470.552 867.483 470.216 866.587 469.928C865.691 469.64 864.651 469.384 863.467 469.16C862.283 468.968 861.051 468.76 859.771 468.536L857.323 468.104C856.587 468.68 856.075 469.288 855.787 469.928C855.499 470.568 855.355 471.128 855.355 471.608C855.355 472.28 855.531 472.872 855.883 473.384C856.267 473.928 856.763 474.392 857.371 474.776C858.011 475.16 858.747 475.448 859.579 475.64C860.443 475.832 861.371 475.928 862.363 475.928ZM865.003 466.328C866.283 466.52 867.339 466.776 868.171 467.096C869.035 467.416 869.723 467.784 870.235 468.2C870.747 468.648 871.099 469.128 871.291 469.64C871.483 470.184 871.579 470.76 871.579 471.368C871.579 472.456 871.275 473.4 870.667 474.2C870.091 475 869.323 475.656 868.363 476.168C867.435 476.712 866.363 477.112 865.147 477.368C863.963 477.624 862.747 477.752 861.499 477.752C860.283 477.752 859.115 477.624 857.995 477.368C856.875 477.144 855.883 476.792 855.019 476.312C854.155 475.832 853.467 475.224 852.955 474.488C852.443 473.784 852.187 472.968 852.187 472.04C852.187 471.208 852.443 470.408 852.955 469.64C853.467 468.904 854.299 468.168 855.451 467.432C854.331 466.856 853.467 466.088 852.859 465.128C852.283 464.136 851.995 463.128 851.995 462.104C851.995 461.496 852.139 460.904 852.427 460.328C852.715 459.72 853.179 459.16 853.819 458.648C853.275 458.008 852.891 457.368 852.667 456.728C852.443 456.088 852.331 455.4 852.331 454.664C852.331 453.512 852.571 452.44 853.051 451.448C853.531 450.456 854.187 449.592 855.019 448.856C855.851 448.12 856.827 447.544 857.947 447.128C859.067 446.712 860.267 446.504 861.547 446.504C862.891 446.504 864.171 446.744 865.387 447.224C866.603 447.672 867.627 448.264 868.459 449H871.915V450.728H869.707C869.931 451.208 870.155 451.784 870.379 452.456C870.603 453.096 870.715 453.768 870.715 454.472C870.715 455.496 870.475 456.472 869.995 457.4C869.515 458.296 868.843 459.096 867.979 459.8C867.147 460.472 866.155 461.016 865.003 461.432C863.883 461.816 862.683 462.008 861.403 462.008C860.219 462.008 859.067 461.832 857.947 461.48C856.827 461.128 855.835 460.616 854.971 459.944C854.619 460.168 854.379 460.456 854.251 460.808C854.123 461.128 854.059 461.464 854.059 461.816C854.059 462.84 854.523 463.64 855.451 464.216C856.379 464.76 857.563 465.144 859.003 465.368L865.003 466.328ZM860.971 448.184C860.203 448.184 859.483 448.328 858.811 448.616C858.139 448.872 857.547 449.24 857.035 449.72C856.523 450.2 856.107 450.792 855.787 451.496C855.499 452.168 855.355 452.936 855.355 453.8C855.355 454.856 855.563 455.8 855.979 456.632C856.427 457.464 856.987 458.152 857.659 458.696C858.331 459.24 859.067 459.656 859.867 459.944C860.699 460.232 861.483 460.376 862.219 460.376C863.019 460.376 863.739 460.232 864.379 459.944C865.051 459.624 865.627 459.208 866.107 458.696C866.587 458.152 866.955 457.528 867.211 456.824C867.467 456.12 867.595 455.384 867.595 454.616C867.595 453.656 867.403 452.776 867.019 451.976C866.635 451.176 866.123 450.504 865.483 449.96C864.875 449.384 864.171 448.952 863.371 448.664C862.571 448.344 861.771 448.184 860.971 448.184ZM878.784 457.304C878.912 458.424 879.184 459.496 879.6 460.52C880.016 461.512 880.56 462.392 881.232 463.16C881.936 463.928 882.784 464.552 883.776 465.032C884.768 465.48 885.92 465.704 887.232 465.704C887.936 465.704 888.672 465.608 889.44 465.416C890.24 465.192 890.976 464.888 891.648 464.504C892.32 464.12 892.912 463.656 893.424 463.112C893.968 462.536 894.336 461.896 894.528 461.192H894.96V464.792C894.768 464.792 894.544 464.856 894.288 464.984C894.064 465.112 893.792 465.272 893.472 465.464C892.832 465.848 891.968 466.264 890.88 466.712C889.792 467.128 888.352 467.336 886.56 467.336C885.12 467.336 883.744 467.128 882.432 466.712C881.152 466.296 880.016 465.656 879.024 464.792C878.032 463.928 877.232 462.824 876.624 461.48C876.048 460.136 875.76 458.536 875.76 456.68C875.76 455.496 875.952 454.296 876.336 453.08C876.752 451.864 877.36 450.776 878.16 449.816C878.992 448.824 880.048 448.024 881.328 447.416C882.608 446.808 884.144 446.504 885.936 446.504C887.536 446.504 888.928 446.776 890.112 447.32C891.328 447.864 892.32 448.616 893.088 449.576C893.888 450.536 894.48 451.672 894.864 452.984C895.248 454.296 895.44 455.736 895.44 457.304H878.784ZM885.744 448.088C884.624 448.088 883.648 448.312 882.816 448.76C882.016 449.208 881.328 449.784 880.752 450.488C880.176 451.192 879.728 451.992 879.408 452.888C879.088 453.784 878.88 454.68 878.784 455.576H892.464C892.432 454.648 892.256 453.736 891.936 452.84C891.648 451.944 891.232 451.144 890.688 450.44C890.144 449.736 889.456 449.176 888.624 448.76C887.792 448.312 886.832 448.088 885.744 448.088ZM900.065 435.368H906.257V435.848C905.841 435.848 905.521 436.152 905.297 436.76C905.073 437.336 904.945 437.864 904.913 438.344L903.665 461.528H903.089L901.649 438.344C901.649 438.12 901.601 437.864 901.505 437.576C901.441 437.288 901.345 437.016 901.217 436.76C901.089 436.504 900.929 436.296 900.737 436.136C900.545 435.944 900.321 435.848 900.065 435.848V435.368ZM901.121 465.176C901.121 464.536 901.329 463.992 901.745 463.544C902.193 463.096 902.737 462.872 903.377 462.872C904.017 462.872 904.545 463.096 904.961 463.544C905.409 463.992 905.633 464.536 905.633 465.176C905.633 465.816 905.409 466.36 904.961 466.808C904.545 467.224 904.017 467.432 903.377 467.432C902.737 467.432 902.193 467.224 901.745 466.808C901.329 466.36 901.121 465.816 901.121 465.176Z" fill="black"/>
<circle cx="100" cy="61" r="90" fill="#58B066"/>
<circle cx="261.5" cy="100.5" r="129.5" fill="#58B066" fill-opacity="0.54"/>
<circle cx="39" cy="163" r="39" fill="#58B066" fill-opacity="0.54"/>
<circle cx="192" cy="667" r="52" fill="#58B066" fill-opacity="0.69"/>
<circle cx="1032.5" cy="150.5" r="122.5" fill="#58B066"/>
<circle cx="39" cy="606" r="153" fill="#329B43"/>
<circle cx="955.5" cy="614.5" r="77.5" fill="#58B066"/>
<circle cx="769.5" cy="655.5" r="140.5" fill="#58B066" fill-opacity="0.44"/>
</g>
<defs>
<clipPath id="clip0_1_140">
<rect width="1089" height="737" fill="white"/>
</clipPath>
</defs>
</svg>
